<mxfile host="app.diagrams.net" agent="Mozilla/5.0 (Windows NT 10.0; Win64; x64) AppleWebKit/537.36 (KHTML, like Gecko) Chrome/128.0.0.0 Safari/537.36" version="24.7.12">
  <diagram name="PÃ¡gina-1" id="P-P-XCb7FcTI25XWb-ea">
    <mxGraphModel dx="880" dy="1643" grid="1" gridSize="10" guides="1" tooltips="1" connect="1" arrows="1" fold="1" page="1" pageScale="1" pageWidth="827" pageHeight="1169" math="0" shadow="0">
      <root>
        <mxCell id="0" />
        <mxCell id="1" parent="0" />
        <mxCell id="tuSxMI7qpn9jwyMb-K9N-1" value="" style="rounded=0;whiteSpace=wrap;html=1;" parent="1" vertex="1">
          <mxGeometry x="130" y="150" width="72" height="70" as="geometry" />
        </mxCell>
        <mxCell id="tuSxMI7qpn9jwyMb-K9N-2" value="" style="edgeStyle=none;orthogonalLoop=1;jettySize=auto;html=1;rounded=0;fontSize=12;startSize=8;endSize=8;curved=1;" parent="1" edge="1">
          <mxGeometry width="140" relative="1" as="geometry">
            <mxPoint x="202" y="169" as="sourcePoint" />
            <mxPoint x="320" y="120" as="targetPoint" />
            <Array as="points" />
          </mxGeometry>
        </mxCell>
        <mxCell id="tuSxMI7qpn9jwyMb-K9N-3" value="" style="edgeStyle=none;orthogonalLoop=1;jettySize=auto;html=1;rounded=0;fontSize=12;startSize=8;endSize=8;curved=1;" parent="1" edge="1">
          <mxGeometry width="140" relative="1" as="geometry">
            <mxPoint x="202" y="202" as="sourcePoint" />
            <mxPoint x="320" y="280" as="targetPoint" />
            <Array as="points" />
          </mxGeometry>
        </mxCell>
        <mxCell id="tuSxMI7qpn9jwyMb-K9N-4" value="Linux&lt;div&gt;100%&lt;/div&gt;" style="text;strokeColor=none;fillColor=none;html=1;align=center;verticalAlign=middle;whiteSpace=wrap;rounded=0;fontSize=16;rotation=-20;" parent="1" vertex="1">
          <mxGeometry x="220" y="112" width="60" height="30" as="geometry" />
        </mxCell>
        <mxCell id="tuSxMI7qpn9jwyMb-K9N-5" value="Microsoft&lt;div&gt;(Windows)&lt;br&gt;&lt;div&gt;0%&lt;/div&gt;&lt;/div&gt;" style="text;strokeColor=none;fillColor=none;html=1;align=center;verticalAlign=middle;whiteSpace=wrap;rounded=0;fontSize=16;rotation=30;" parent="1" vertex="1">
          <mxGeometry x="202" y="252" width="60" height="30" as="geometry" />
        </mxCell>
        <mxCell id="tuSxMI7qpn9jwyMb-K9N-6" style="edgeStyle=none;curved=1;rounded=0;orthogonalLoop=1;jettySize=auto;html=1;exitX=0.25;exitY=0;exitDx=0;exitDy=0;fontSize=12;startSize=8;endSize=8;" parent="1" source="tuSxMI7qpn9jwyMb-K9N-4" target="tuSxMI7qpn9jwyMb-K9N-4" edge="1">
          <mxGeometry relative="1" as="geometry" />
        </mxCell>
        <mxCell id="tuSxMI7qpn9jwyMb-K9N-7" style="edgeStyle=none;curved=1;rounded=0;orthogonalLoop=1;jettySize=auto;html=1;exitX=1;exitY=0;exitDx=0;exitDy=0;fontSize=12;startSize=8;endSize=8;" parent="1" source="tuSxMI7qpn9jwyMb-K9N-10" edge="1">
          <mxGeometry relative="1" as="geometry">
            <mxPoint x="640" y="-100" as="targetPoint" />
          </mxGeometry>
        </mxCell>
        <mxCell id="tuSxMI7qpn9jwyMb-K9N-8" style="edgeStyle=none;curved=1;rounded=0;orthogonalLoop=1;jettySize=auto;html=1;exitX=1;exitY=0.5;exitDx=0;exitDy=0;fontSize=12;startSize=8;endSize=8;entryX=0;entryY=0.5;entryDx=0;entryDy=0;" parent="1" source="tuSxMI7qpn9jwyMb-K9N-10" target="tuSxMI7qpn9jwyMb-K9N-12" edge="1">
          <mxGeometry relative="1" as="geometry">
            <mxPoint x="670" y="40" as="targetPoint" />
          </mxGeometry>
        </mxCell>
        <mxCell id="tuSxMI7qpn9jwyMb-K9N-9" style="edgeStyle=none;curved=1;rounded=0;orthogonalLoop=1;jettySize=auto;html=1;exitX=1;exitY=1;exitDx=0;exitDy=0;fontSize=12;startSize=8;endSize=8;entryX=0;entryY=0.5;entryDx=0;entryDy=0;" parent="1" source="tuSxMI7qpn9jwyMb-K9N-10" target="tuSxMI7qpn9jwyMb-K9N-13" edge="1">
          <mxGeometry relative="1" as="geometry">
            <mxPoint x="640" y="120" as="targetPoint" />
          </mxGeometry>
        </mxCell>
        <mxCell id="tuSxMI7qpn9jwyMb-K9N-10" value="" style="ellipse;whiteSpace=wrap;html=1;" parent="1" vertex="1">
          <mxGeometry x="480" y="5" width="80" height="80" as="geometry" />
        </mxCell>
        <mxCell id="tuSxMI7qpn9jwyMb-K9N-11" value="" style="ellipse;whiteSpace=wrap;html=1;" parent="1" vertex="1">
          <mxGeometry x="641" y="-149" width="80" height="80" as="geometry" />
        </mxCell>
        <mxCell id="tuSxMI7qpn9jwyMb-K9N-12" value="" style="ellipse;whiteSpace=wrap;html=1;" parent="1" vertex="1">
          <mxGeometry x="721" y="5" width="80" height="80" as="geometry" />
        </mxCell>
        <mxCell id="tuSxMI7qpn9jwyMb-K9N-13" value="" style="ellipse;whiteSpace=wrap;html=1;" parent="1" vertex="1">
          <mxGeometry x="645" y="180" width="80" height="80" as="geometry" />
        </mxCell>
        <mxCell id="tuSxMI7qpn9jwyMb-K9N-14" value="&lt;div&gt;RHEL&lt;/div&gt;&lt;div&gt;33%&lt;/div&gt;" style="text;strokeColor=none;fillColor=none;html=1;align=center;verticalAlign=middle;whiteSpace=wrap;rounded=0;fontSize=16;rotation=-50;" parent="1" vertex="1">
          <mxGeometry x="530" y="-88" width="75" height="50" as="geometry" />
        </mxCell>
        <mxCell id="tuSxMI7qpn9jwyMb-K9N-15" value="OpenSUSE&lt;div&gt;33%&lt;/div&gt;" style="text;html=1;align=center;verticalAlign=middle;resizable=0;points=[];autosize=1;strokeColor=none;fillColor=none;fontSize=16;rotation=60;" parent="1" vertex="1">
          <mxGeometry x="570" y="102" width="110" height="50" as="geometry" />
        </mxCell>
        <mxCell id="tuSxMI7qpn9jwyMb-K9N-16" style="edgeStyle=none;curved=1;rounded=0;orthogonalLoop=1;jettySize=auto;html=1;exitX=1;exitY=0;exitDx=0;exitDy=0;fontSize=12;startSize=8;endSize=8;" parent="1" edge="1">
          <mxGeometry relative="1" as="geometry">
            <mxPoint x="480" y="40" as="targetPoint" />
            <mxPoint x="388.2842712474619" y="91.71572875253821" as="sourcePoint" />
          </mxGeometry>
        </mxCell>
        <mxCell id="tuSxMI7qpn9jwyMb-K9N-17" style="edgeStyle=none;curved=1;rounded=0;orthogonalLoop=1;jettySize=auto;html=1;exitX=1;exitY=1;exitDx=0;exitDy=0;fontSize=12;startSize=8;endSize=8;entryX=0.188;entryY=0.1;entryDx=0;entryDy=0;entryPerimeter=0;" parent="1" target="tuSxMI7qpn9jwyMb-K9N-25" edge="1">
          <mxGeometry relative="1" as="geometry">
            <mxPoint x="480" y="200" as="targetPoint" />
            <mxPoint x="388.2842712474619" y="148.2842712474619" as="sourcePoint" />
          </mxGeometry>
        </mxCell>
        <mxCell id="tuSxMI7qpn9jwyMb-K9N-18" value="Enterprise&lt;div&gt;(Para Cliente)&lt;/div&gt;" style="text;html=1;align=center;verticalAlign=middle;resizable=0;points=[];autosize=1;strokeColor=none;fillColor=none;fontSize=16;rotation=-32;" parent="1" vertex="1">
          <mxGeometry x="350" y="20" width="120" height="50" as="geometry" />
        </mxCell>
        <mxCell id="tuSxMI7qpn9jwyMb-K9N-19" value="Community&lt;div&gt;(Desarrollo)&lt;/div&gt;" style="text;html=1;align=center;verticalAlign=middle;resizable=0;points=[];autosize=1;strokeColor=none;fillColor=none;fontSize=16;rotation=39;" parent="1" vertex="1">
          <mxGeometry x="370" y="216" width="110" height="50" as="geometry" />
        </mxCell>
        <mxCell id="tuSxMI7qpn9jwyMb-K9N-20" value="UbuntuLTS&lt;div&gt;33%&lt;/div&gt;" style="text;strokeColor=none;fillColor=none;html=1;align=center;verticalAlign=middle;whiteSpace=wrap;rounded=0;fontSize=16;" parent="1" vertex="1">
          <mxGeometry x="560" y="-10" width="90" height="40" as="geometry" />
        </mxCell>
        <mxCell id="tuSxMI7qpn9jwyMb-K9N-21" value="" style="whiteSpace=wrap;html=1;" parent="1" vertex="1">
          <mxGeometry x="320" y="90" width="70" height="60" as="geometry" />
        </mxCell>
        <mxCell id="tuSxMI7qpn9jwyMb-K9N-22" style="edgeStyle=none;curved=1;rounded=0;orthogonalLoop=1;jettySize=auto;html=1;exitX=1;exitY=0;exitDx=0;exitDy=0;fontSize=12;startSize=8;endSize=8;" parent="1" source="tuSxMI7qpn9jwyMb-K9N-25" edge="1">
          <mxGeometry relative="1" as="geometry">
            <mxPoint x="700" y="430" as="targetPoint" />
          </mxGeometry>
        </mxCell>
        <mxCell id="tuSxMI7qpn9jwyMb-K9N-23" style="edgeStyle=none;curved=1;rounded=0;orthogonalLoop=1;jettySize=auto;html=1;exitX=1;exitY=0.5;exitDx=0;exitDy=0;fontSize=12;startSize=8;endSize=8;entryX=0;entryY=0.5;entryDx=0;entryDy=0;" parent="1" source="tuSxMI7qpn9jwyMb-K9N-25" target="tuSxMI7qpn9jwyMb-K9N-27" edge="1">
          <mxGeometry relative="1" as="geometry">
            <mxPoint x="700" y="510" as="targetPoint" />
          </mxGeometry>
        </mxCell>
        <mxCell id="tuSxMI7qpn9jwyMb-K9N-24" style="edgeStyle=none;curved=1;rounded=0;orthogonalLoop=1;jettySize=auto;html=1;exitX=1;exitY=1;exitDx=0;exitDy=0;fontSize=12;startSize=8;endSize=8;entryX=0;entryY=0.5;entryDx=0;entryDy=0;" parent="1" source="tuSxMI7qpn9jwyMb-K9N-25" target="tuSxMI7qpn9jwyMb-K9N-28" edge="1">
          <mxGeometry relative="1" as="geometry">
            <mxPoint x="700" y="590" as="targetPoint" />
          </mxGeometry>
        </mxCell>
        <mxCell id="tuSxMI7qpn9jwyMb-K9N-25" value="" style="ellipse;whiteSpace=wrap;html=1;" parent="1" vertex="1">
          <mxGeometry x="540" y="470" width="80" height="80" as="geometry" />
        </mxCell>
        <mxCell id="tuSxMI7qpn9jwyMb-K9N-26" value="" style="ellipse;whiteSpace=wrap;html=1;" parent="1" vertex="1">
          <mxGeometry x="700" y="380" width="80" height="80" as="geometry" />
        </mxCell>
        <mxCell id="tuSxMI7qpn9jwyMb-K9N-27" value="" style="ellipse;whiteSpace=wrap;html=1;" parent="1" vertex="1">
          <mxGeometry x="705" y="585" width="80" height="80" as="geometry" />
        </mxCell>
        <mxCell id="tuSxMI7qpn9jwyMb-K9N-28" value="" style="ellipse;whiteSpace=wrap;html=1;" parent="1" vertex="1">
          <mxGeometry x="690" y="780" width="80" height="80" as="geometry" />
        </mxCell>
        <mxCell id="tuSxMI7qpn9jwyMb-K9N-29" value="Fedora Server&lt;br&gt;&lt;div&gt;80%&lt;/div&gt;" style="text;strokeColor=none;fillColor=none;html=1;align=center;verticalAlign=middle;whiteSpace=wrap;rounded=0;fontSize=16;rotation=-30;" parent="1" vertex="1">
          <mxGeometry x="599" y="407.59000000000003" width="75" height="50" as="geometry" />
        </mxCell>
        <mxCell id="tuSxMI7qpn9jwyMb-K9N-30" value="Ubuntu&lt;div&gt;5%&lt;/div&gt;" style="text;html=1;align=center;verticalAlign=middle;resizable=0;points=[];autosize=1;strokeColor=none;fillColor=none;fontSize=16;rotation=0;" parent="1" vertex="1">
          <mxGeometry x="655" y="710" width="80" height="50" as="geometry" />
        </mxCell>
        <mxCell id="tuSxMI7qpn9jwyMb-K9N-31" value="CentOS&lt;div&gt;15%&lt;/div&gt;" style="text;strokeColor=none;fillColor=none;html=1;align=center;verticalAlign=middle;whiteSpace=wrap;rounded=0;fontSize=16;" parent="1" vertex="1">
          <mxGeometry x="631" y="493.59000000000003" width="90" height="40" as="geometry" />
        </mxCell>
        <mxCell id="tuSxMI7qpn9jwyMb-K9N-32" style="edgeStyle=none;curved=1;rounded=0;orthogonalLoop=1;jettySize=auto;html=1;exitX=1;exitY=0.5;exitDx=0;exitDy=0;fontSize=12;startSize=8;endSize=8;" parent="1" edge="1">
          <mxGeometry relative="1" as="geometry">
            <mxPoint x="851" y="-116.94" as="targetPoint" />
            <mxPoint x="720" y="-114" as="sourcePoint" />
          </mxGeometry>
        </mxCell>
        <mxCell id="tuSxMI7qpn9jwyMb-K9N-33" style="edgeStyle=none;curved=1;rounded=0;orthogonalLoop=1;jettySize=auto;html=1;exitX=1.014;exitY=0.679;exitDx=0;exitDy=0;fontSize=12;startSize=8;endSize=8;exitPerimeter=0;" parent="1" edge="1">
          <mxGeometry relative="1" as="geometry">
            <mxPoint x="840" y="-84" as="targetPoint" />
            <mxPoint x="721.1199999999999" y="-99.68000000000006" as="sourcePoint" />
          </mxGeometry>
        </mxCell>
        <mxCell id="tuSxMI7qpn9jwyMb-K9N-34" value="&lt;div&gt;Ãltima version LTS&lt;/div&gt;&lt;div&gt;(100%)&lt;/div&gt;" style="text;strokeColor=none;fillColor=none;html=1;align=center;verticalAlign=middle;whiteSpace=wrap;rounded=0;fontSize=16;rotation=0;" parent="1" vertex="1">
          <mxGeometry x="750" y="-190" width="75" height="50" as="geometry" />
        </mxCell>
        <mxCell id="tuSxMI7qpn9jwyMb-K9N-35" value="VersiÃ³n sin soporte&lt;div&gt;(0%)&lt;/div&gt;" style="text;strokeColor=none;fillColor=none;html=1;align=center;verticalAlign=middle;whiteSpace=wrap;rounded=0;fontSize=16;" parent="1" vertex="1">
          <mxGeometry x="735" y="-80" width="90" height="40" as="geometry" />
        </mxCell>
        <mxCell id="tuSxMI7qpn9jwyMb-K9N-36" value="RHEL 7.5" style="text;strokeColor=none;fillColor=none;html=1;align=center;verticalAlign=middle;whiteSpace=wrap;rounded=0;fontSize=16;" parent="1" vertex="1">
          <mxGeometry x="850" y="-129" width="60" height="30" as="geometry" />
        </mxCell>
        <mxCell id="tuSxMI7qpn9jwyMb-K9N-38" style="edgeStyle=none;curved=1;rounded=0;orthogonalLoop=1;jettySize=auto;html=1;exitX=1;exitY=0.5;exitDx=0;exitDy=0;fontSize=12;startSize=8;endSize=8;" parent="1" edge="1">
          <mxGeometry relative="1" as="geometry">
            <mxPoint x="932" y="35.06" as="targetPoint" />
            <mxPoint x="801" y="38" as="sourcePoint" />
          </mxGeometry>
        </mxCell>
        <mxCell id="tuSxMI7qpn9jwyMb-K9N-39" style="edgeStyle=none;curved=1;rounded=0;orthogonalLoop=1;jettySize=auto;html=1;exitX=1.014;exitY=0.679;exitDx=0;exitDy=0;fontSize=12;startSize=8;endSize=8;exitPerimeter=0;" parent="1" edge="1">
          <mxGeometry relative="1" as="geometry">
            <mxPoint x="921" y="68" as="targetPoint" />
            <mxPoint x="802.1199999999999" y="52.319999999999936" as="sourcePoint" />
          </mxGeometry>
        </mxCell>
        <mxCell id="tuSxMI7qpn9jwyMb-K9N-40" value="&lt;div&gt;Ãltima version LTS&lt;/div&gt;&lt;div&gt;(100%)&lt;/div&gt;" style="text;strokeColor=none;fillColor=none;html=1;align=center;verticalAlign=middle;whiteSpace=wrap;rounded=0;fontSize=16;rotation=0;" parent="1" vertex="1">
          <mxGeometry x="831" y="-38" width="75" height="50" as="geometry" />
        </mxCell>
        <mxCell id="tuSxMI7qpn9jwyMb-K9N-41" value="VersiÃ³n sin soporte&lt;div&gt;(0%)&lt;/div&gt;" style="text;strokeColor=none;fillColor=none;html=1;align=center;verticalAlign=middle;whiteSpace=wrap;rounded=0;fontSize=16;" parent="1" vertex="1">
          <mxGeometry x="816" y="72" width="90" height="40" as="geometry" />
        </mxCell>
        <mxCell id="tuSxMI7qpn9jwyMb-K9N-42" value="Ubuntu LTS 24.04" style="text;strokeColor=none;fillColor=none;html=1;align=center;verticalAlign=middle;whiteSpace=wrap;rounded=0;fontSize=16;" parent="1" vertex="1">
          <mxGeometry x="931" y="23" width="60" height="30" as="geometry" />
        </mxCell>
        <mxCell id="tuSxMI7qpn9jwyMb-K9N-43" style="edgeStyle=none;curved=1;rounded=0;orthogonalLoop=1;jettySize=auto;html=1;exitX=1;exitY=0.5;exitDx=0;exitDy=0;fontSize=12;startSize=8;endSize=8;" parent="1" edge="1">
          <mxGeometry relative="1" as="geometry">
            <mxPoint x="856" y="215.06" as="targetPoint" />
            <mxPoint x="725" y="218" as="sourcePoint" />
          </mxGeometry>
        </mxCell>
        <mxCell id="tuSxMI7qpn9jwyMb-K9N-44" style="edgeStyle=none;curved=1;rounded=0;orthogonalLoop=1;jettySize=auto;html=1;exitX=1.014;exitY=0.679;exitDx=0;exitDy=0;fontSize=12;startSize=8;endSize=8;exitPerimeter=0;" parent="1" edge="1">
          <mxGeometry relative="1" as="geometry">
            <mxPoint x="845" y="248" as="targetPoint" />
            <mxPoint x="726.1199999999999" y="232.31999999999994" as="sourcePoint" />
          </mxGeometry>
        </mxCell>
        <mxCell id="tuSxMI7qpn9jwyMb-K9N-45" value="&lt;div&gt;Ãltima version LTS&lt;/div&gt;&lt;div&gt;(100%)&lt;/div&gt;" style="text;strokeColor=none;fillColor=none;html=1;align=center;verticalAlign=middle;whiteSpace=wrap;rounded=0;fontSize=16;rotation=0;" parent="1" vertex="1">
          <mxGeometry x="755" y="142" width="75" height="50" as="geometry" />
        </mxCell>
        <mxCell id="tuSxMI7qpn9jwyMb-K9N-46" value="VersiÃ³n sin soporte&lt;div&gt;(0%)&lt;/div&gt;" style="text;strokeColor=none;fillColor=none;html=1;align=center;verticalAlign=middle;whiteSpace=wrap;rounded=0;fontSize=16;" parent="1" vertex="1">
          <mxGeometry x="740" y="252" width="90" height="40" as="geometry" />
        </mxCell>
        <mxCell id="tuSxMI7qpn9jwyMb-K9N-47" value="OpenSUSE 15.5" style="text;strokeColor=none;fillColor=none;html=1;align=center;verticalAlign=middle;whiteSpace=wrap;rounded=0;fontSize=16;" parent="1" vertex="1">
          <mxGeometry x="871" y="205" width="60" height="30" as="geometry" />
        </mxCell>
        <mxCell id="tuSxMI7qpn9jwyMb-K9N-48" style="edgeStyle=none;curved=1;rounded=0;orthogonalLoop=1;jettySize=auto;html=1;exitX=1;exitY=0.5;exitDx=0;exitDy=0;fontSize=12;startSize=8;endSize=8;" parent="1" edge="1">
          <mxGeometry relative="1" as="geometry">
            <mxPoint x="911" y="404.65" as="targetPoint" />
            <mxPoint x="780" y="407.59" as="sourcePoint" />
          </mxGeometry>
        </mxCell>
        <mxCell id="tuSxMI7qpn9jwyMb-K9N-49" style="edgeStyle=none;curved=1;rounded=0;orthogonalLoop=1;jettySize=auto;html=1;exitX=1.014;exitY=0.679;exitDx=0;exitDy=0;fontSize=12;startSize=8;endSize=8;exitPerimeter=0;" parent="1" edge="1">
          <mxGeometry relative="1" as="geometry">
            <mxPoint x="900" y="437.59" as="targetPoint" />
            <mxPoint x="781.1199999999999" y="421.9099999999999" as="sourcePoint" />
          </mxGeometry>
        </mxCell>
        <mxCell id="tuSxMI7qpn9jwyMb-K9N-50" value="&lt;div&gt;Ãltima version con soporte&lt;/div&gt;&lt;div&gt;(100%)&lt;/div&gt;" style="text;strokeColor=none;fillColor=none;html=1;align=center;verticalAlign=middle;whiteSpace=wrap;rounded=0;fontSize=16;rotation=0;" parent="1" vertex="1">
          <mxGeometry x="810" y="331.59" width="75" height="50" as="geometry" />
        </mxCell>
        <mxCell id="tuSxMI7qpn9jwyMb-K9N-51" value="VersiÃ³n sin soporte&lt;div&gt;(0%)&lt;/div&gt;" style="text;strokeColor=none;fillColor=none;html=1;align=center;verticalAlign=middle;whiteSpace=wrap;rounded=0;fontSize=16;" parent="1" vertex="1">
          <mxGeometry x="795" y="441.59" width="90" height="40" as="geometry" />
        </mxCell>
        <mxCell id="tuSxMI7qpn9jwyMb-K9N-52" value="Fedora 40" style="text;strokeColor=none;fillColor=none;html=1;align=center;verticalAlign=middle;whiteSpace=wrap;rounded=0;fontSize=16;" parent="1" vertex="1">
          <mxGeometry x="910" y="392.59" width="60" height="30" as="geometry" />
        </mxCell>
        <mxCell id="tuSxMI7qpn9jwyMb-K9N-59" style="edgeStyle=none;curved=1;rounded=0;orthogonalLoop=1;jettySize=auto;html=1;exitX=1;exitY=0.5;exitDx=0;exitDy=0;fontSize=12;startSize=8;endSize=8;" parent="1" edge="1">
          <mxGeometry relative="1" as="geometry">
            <mxPoint x="916" y="618.06" as="targetPoint" />
            <mxPoint x="785" y="621" as="sourcePoint" />
          </mxGeometry>
        </mxCell>
        <mxCell id="tuSxMI7qpn9jwyMb-K9N-60" style="edgeStyle=none;curved=1;rounded=0;orthogonalLoop=1;jettySize=auto;html=1;exitX=1.014;exitY=0.679;exitDx=0;exitDy=0;fontSize=12;startSize=8;endSize=8;exitPerimeter=0;" parent="1" edge="1">
          <mxGeometry relative="1" as="geometry">
            <mxPoint x="905" y="651" as="targetPoint" />
            <mxPoint x="786.1199999999999" y="635.3199999999999" as="sourcePoint" />
          </mxGeometry>
        </mxCell>
        <mxCell id="tuSxMI7qpn9jwyMb-K9N-61" value="&lt;div&gt;Ãltima version con soporte&lt;/div&gt;&lt;div&gt;(100%)&lt;/div&gt;" style="text;strokeColor=none;fillColor=none;html=1;align=center;verticalAlign=middle;whiteSpace=wrap;rounded=0;fontSize=16;rotation=0;" parent="1" vertex="1">
          <mxGeometry x="815" y="545" width="75" height="50" as="geometry" />
        </mxCell>
        <mxCell id="tuSxMI7qpn9jwyMb-K9N-62" value="VersiÃ³n sin soporte&lt;div&gt;(0%)&lt;/div&gt;" style="text;strokeColor=none;fillColor=none;html=1;align=center;verticalAlign=middle;whiteSpace=wrap;rounded=0;fontSize=16;" parent="1" vertex="1">
          <mxGeometry x="800" y="655" width="90" height="40" as="geometry" />
        </mxCell>
        <mxCell id="tuSxMI7qpn9jwyMb-K9N-63" value="CentOS 9" style="text;strokeColor=none;fillColor=none;html=1;align=center;verticalAlign=middle;whiteSpace=wrap;rounded=0;fontSize=16;" parent="1" vertex="1">
          <mxGeometry x="915" y="606" width="60" height="30" as="geometry" />
        </mxCell>
        <mxCell id="tuSxMI7qpn9jwyMb-K9N-64" style="edgeStyle=none;curved=1;rounded=0;orthogonalLoop=1;jettySize=auto;html=1;exitX=1;exitY=0.5;exitDx=0;exitDy=0;fontSize=12;startSize=8;endSize=8;" parent="1" edge="1">
          <mxGeometry relative="1" as="geometry">
            <mxPoint x="901" y="813.06" as="targetPoint" />
            <mxPoint x="770" y="816" as="sourcePoint" />
          </mxGeometry>
        </mxCell>
        <mxCell id="tuSxMI7qpn9jwyMb-K9N-65" style="edgeStyle=none;curved=1;rounded=0;orthogonalLoop=1;jettySize=auto;html=1;exitX=1.014;exitY=0.679;exitDx=0;exitDy=0;fontSize=12;startSize=8;endSize=8;exitPerimeter=0;" parent="1" edge="1">
          <mxGeometry relative="1" as="geometry">
            <mxPoint x="890" y="846" as="targetPoint" />
            <mxPoint x="771.1199999999999" y="830.3199999999999" as="sourcePoint" />
          </mxGeometry>
        </mxCell>
        <mxCell id="tuSxMI7qpn9jwyMb-K9N-66" value="&lt;div&gt;Ãltima version con soporte&lt;/div&gt;&lt;div&gt;(100%)&lt;/div&gt;" style="text;strokeColor=none;fillColor=none;html=1;align=center;verticalAlign=middle;whiteSpace=wrap;rounded=0;fontSize=16;rotation=0;" parent="1" vertex="1">
          <mxGeometry x="800" y="740" width="75" height="50" as="geometry" />
        </mxCell>
        <mxCell id="tuSxMI7qpn9jwyMb-K9N-67" value="VersiÃ³n sin soporte&lt;div&gt;(0%)&lt;/div&gt;" style="text;strokeColor=none;fillColor=none;html=1;align=center;verticalAlign=middle;whiteSpace=wrap;rounded=0;fontSize=16;" parent="1" vertex="1">
          <mxGeometry x="785" y="850" width="90" height="40" as="geometry" />
        </mxCell>
        <mxCell id="tuSxMI7qpn9jwyMb-K9N-68" value="Ubuntu 24.04" style="text;strokeColor=none;fillColor=none;html=1;align=center;verticalAlign=middle;whiteSpace=wrap;rounded=0;fontSize=16;" parent="1" vertex="1">
          <mxGeometry x="900" y="801" width="60" height="30" as="geometry" />
        </mxCell>
      </root>
    </mxGraphModel>
  </diagram>
</mxfile>
